HIERARCHY
ROOT Hips
{
 OFFSET 0.000000 0.000000 0.000000
 CHANNELS 6 Xposition Yposition Zposition Yrotation Xrotation Zrotation
 JOINT Chest
 {
  OFFSET 0.000000 9.630565 -1.070063
  CHANNELS 3 Yrotation Xrotation Zrotation
  JOINT Chest2
  {
   OFFSET 0.000000 10.515092 0.000000
   CHANNELS 3 Yrotation Xrotation Zrotation
   JOINT Chest3
   {
    OFFSET 0.000000 9.604626 -0.030425
    CHANNELS 3 Yrotation Xrotation Zrotation
    JOINT Chest4
    {
     OFFSET 0.000000 9.593896 -0.030455
     CHANNELS 3 Yrotation Xrotation Zrotation
     JOINT Neck
     {
      OFFSET 0.000000 13.488791 0.000000
      CHANNELS 3 Yrotation Xrotation Zrotation
      JOINT Head
      {
       OFFSET 0.000000 10.704499 -0.075716
       CHANNELS 3 Yrotation Xrotation Zrotation
       End Site
       {
        OFFSET 0.000000 21.416259 -0.029166
       }
      }
     }
     JOINT RightCollar
     {
      OFFSET -3.054452 7.579305 0.000000
      CHANNELS 3 Yrotation Xrotation Zrotation
      JOINT RightShoulder
      {
       OFFSET -14.776674 0.000000 0.000000
       CHANNELS 3 Yrotation Xrotation Zrotation
       JOINT RightElbow
       {
        OFFSET -30.982767 0.000000 0.000000
        CHANNELS 3 Yrotation Xrotation Zrotation
        JOINT RightWrist
        {
         OFFSET -25.330466 0.000000 0.000000
         CHANNELS 3 Yrotation Xrotation Zrotation
         JOINT RightFinger0
         {
          OFFSET -2.833226 0.000000 2.791865
          CHANNELS 3 Yrotation Xrotation Zrotation
          JOINT RightFinger01
          {
           OFFSET -3.663730 0.000000 0.000000
           CHANNELS 3 Yrotation Xrotation Zrotation
           JOINT RightFinger02
           {
            OFFSET -3.215815 0.000000 0.000000
            CHANNELS 3 Yrotation Xrotation Zrotation
            End Site
            {
             OFFSET -3.215815 0.000000 0.000000
            }
           }
          }
         }
         JOINT RightFinger1
         {
          OFFSET -9.466533 0.000000 1.251169
          CHANNELS 3 Yrotation Xrotation Zrotation
          JOINT RightFinger11
          {
           OFFSET -4.280860 0.000000 0.000000
           CHANNELS 3 Yrotation Xrotation Zrotation
           JOINT RightFinger12
           {
            OFFSET -2.336894 0.000000 0.000000
            CHANNELS 3 Yrotation Xrotation Zrotation
            End Site
            {
             OFFSET -2.099069 0.000000 0.000000
            }
           }
          }
         }
         JOINT RightFinger2
         {
          OFFSET -9.482001 0.000000 0.000000
          CHANNELS 3 Yrotation Xrotation Zrotation
          JOINT RightFinger21
          {
           OFFSET -4.684129 0.000000 0.000000
           CHANNELS 3 Yrotation Xrotation Zrotation
           JOINT RightFinger22
           {
            OFFSET -2.771185 0.000000 0.000000
            CHANNELS 3 Yrotation Xrotation Zrotation
            End Site
            {
             OFFSET -2.202471 0.000000 0.000000
            }
           }
          }
         }
         JOINT RightFinger3
         {
          OFFSET -9.119393 0.000000 -1.261509
          CHANNELS 3 Yrotation Xrotation Zrotation
          JOINT RightFinger31
          {
           OFFSET -4.446304 0.000000 0.000000
           CHANNELS 3 Yrotation Xrotation Zrotation
           JOINT RightFinger32
           {
            OFFSET -2.636761 0.000000 0.000000
            CHANNELS 3 Yrotation Xrotation Zrotation
            End Site
            {
             OFFSET -2.223152 0.000000 0.000000
            }
           }
          }
         }
         JOINT RightFinger4
         {
          OFFSET -8.375151 0.000000 -2.254173
          CHANNELS 3 Yrotation Xrotation Zrotation
          JOINT RightFinger41
          {
           OFFSET -3.712147 0.000000 0.000000
           CHANNELS 3 Yrotation Xrotation Zrotation
           JOINT RightFinger42
           {
            OFFSET -2.016347 0.000000 0.000000
            CHANNELS 3 Yrotation Xrotation Zrotation
            End Site
            {
             OFFSET -2.140430 0.000000 0.000000
            }
           }
          }
         }
        }
       }
      }
     }
     JOINT LeftCollar
     {
      OFFSET 3.054452 7.579305 0.000000
      CHANNELS 3 Yrotation Xrotation Zrotation
      JOINT LeftShoulder
      {
       OFFSET 14.776674 0.000000 0.000000
       CHANNELS 3 Yrotation Xrotation Zrotation
       JOINT LeftElbow
       {
        OFFSET 30.982767 0.000000 0.000000
        CHANNELS 3 Yrotation Xrotation Zrotation
        JOINT LeftWrist
        {
         OFFSET 25.330466 0.000000 0.000000
         CHANNELS 3 Yrotation Xrotation Zrotation
         JOINT LeftFinger0
         {
          OFFSET 2.833226 0.000000 2.791865
          CHANNELS 3 Yrotation Xrotation Zrotation
          JOINT LeftFinger01
          {
           OFFSET 3.663730 0.000000 0.000000
           CHANNELS 3 Yrotation Xrotation Zrotation
           JOINT LeftFinger02
           {
            OFFSET 3.215815 0.000000 0.000000
            CHANNELS 3 Yrotation Xrotation Zrotation
            End Site
            {
             OFFSET 3.215815 0.000000 0.000000
            }
           }
          }
         }
         JOINT LeftFinger1
         {
          OFFSET 9.466533 0.000000 1.251169
          CHANNELS 3 Yrotation Xrotation Zrotation
          JOINT LeftFinger11
          {
           OFFSET 4.280860 0.000000 0.000000
           CHANNELS 3 Yrotation Xrotation Zrotation
           JOINT LeftFinger12
           {
            OFFSET 2.336894 0.000000 0.000000
            CHANNELS 3 Yrotation Xrotation Zrotation
            End Site
            {
             OFFSET 2.099069 0.000000 0.000000
            }
           }
          }
         }
         JOINT LeftFinger2
         {
          OFFSET 9.482001 0.000000 0.000000
          CHANNELS 3 Yrotation Xrotation Zrotation
          JOINT LeftFinger21
          {
           OFFSET 4.684129 0.000000 0.000000
           CHANNELS 3 Yrotation Xrotation Zrotation
           JOINT LeftFinger22
           {
            OFFSET 2.771185 0.000000 0.000000
            CHANNELS 3 Yrotation Xrotation Zrotation
            End Site
            {
             OFFSET 2.202471 0.000000 0.000000
            }
           }
          }
         }
         JOINT LeftFinger3
         {
          OFFSET 9.119393 0.000000 -1.261509
          CHANNELS 3 Yrotation Xrotation Zrotation
          JOINT LeftFinger31
          {
           OFFSET 4.446304 0.000000 0.000000
           CHANNELS 3 Yrotation Xrotation Zrotation
           JOINT LeftFinger32
           {
            OFFSET 2.636761 0.000000 0.000000
            CHANNELS 3 Yrotation Xrotation Zrotation
            End Site
            {
             OFFSET 2.223152 0.000000 0.000000
            }
           }
          }
         }
         JOINT LeftFinger4
         {
          OFFSET 8.375151 0.000000 -2.254173
          CHANNELS 3 Yrotation Xrotation Zrotation
          JOINT LeftFinger41
          {
           OFFSET 3.712147 0.000000 0.000000
           CHANNELS 3 Yrotation Xrotation Zrotation
           JOINT LeftFinger42
           {
            OFFSET 2.016347 0.000000 0.000000
            CHANNELS 3 Yrotation Xrotation Zrotation
            End Site
            {
             OFFSET 2.140430 0.000000 0.000000
            }
           }
          }
         }
        }
       }
      }
     }
    }
   }
  }
 }
 JOINT RightHip
 {
  OFFSET -8.040601 0.075541 -0.008393
  CHANNELS 3 Yrotation Xrotation Zrotation
  JOINT RightKnee
  {
   OFFSET 0.000000 -40.488015 -0.007192
   CHANNELS 3 Yrotation Xrotation Zrotation
   JOINT RightAnkle
   {
    OFFSET 0.000000 -39.536317 -0.012122
    CHANNELS 3 Yrotation Xrotation Zrotation
    JOINT RightToe
    {
     OFFSET 0.000000 -7.815405 17.988983
     CHANNELS 3 Yrotation Xrotation Zrotation
     End Site
     {
      OFFSET 0.000000 -2.689051 7.496003
     }
    }
   }
  }
 }
 JOINT LeftHip
 {
  OFFSET 8.040601 0.073397 -0.008155
  CHANNELS 3 Yrotation Xrotation Zrotation
  JOINT LeftKnee
  {
   OFFSET 0.000000 -40.488015 -0.007192
   CHANNELS 3 Yrotation Xrotation Zrotation
   JOINT LeftAnkle
   {
    OFFSET 0.000000 -39.536317 -0.012122
    CHANNELS 3 Yrotation Xrotation Zrotation
    JOINT LeftToe
    {
     OFFSET 0.000000 -7.815405 17.988983
     CHANNELS 3 Yrotation Xrotation Zrotation
     End Site
     {
      OFFSET 0.000000 -2.689051 7.496003
     }
    }
   }
  }
 }
}
MOTION
Frames: 5
Frame Time: 0.016667
0.000000 90.408098 0.000000 0.000000 6.340192 0.000000 0.000000 -6.340192 0.000000 0.000000 -5.826342 0.000000 0.000000 -0.005910 0.000000 0.000000 5.832252 0.000000 0.000000 12.610213 0.000000 0.000000 -9.243752 0.000000 0.000000 0.000000 0.000000 0.000000 0.000000 0.000000 2.309063 0.000000 0.000000 -2.309063 0.000000 0.000000 0.000000 0.000000 0.000000 0.000000 0.000000 0.000000 0.000000 0.000000 0.000000 0.000000 0.000000 0.000000 0.000000 0.000000 0.000000 0.000000 0.000000 0.000000 0.000000 0.000000 0.000000 0.000000 0.000000 0.000000 0.000000 0.000000 0.000000 0.000000 0.000000 0.000000 0.000000 0.000000 0.000000 0.000000 0.000000 0.000000 0.000000 0.000000 0.000000 0.000000 0.000000 0.000000 0.000000 0.000000 0.000000 0.000000 0.000000 0.000000 0.000000 0.000000 0.000000 -2.309063 0.000000 0.000000 2.309063 0.000000 0.000000 0.000000 0.000000 0.000000 0.000000 0.000000 0.000000 0.000000 0.000000 0.000000 0.000000 0.000000 0.000000 0.000000 0.000000 0.000000 0.000000 0.000000 0.000000 0.000000 0.000000 0.000000 0.000000 0.000000 0.000000 0.000000 0.000000 0.000000 0.000000 0.000000 0.000000 0.000000 0.000000 0.000000 0.000000 0.000000 0.000000 0.000000 0.000000 0.000000 0.000000 0.000000 0.000000 0.000000 0.000000 0.000000 0.000000 -3.591006 0.000000 0.000000 1.872585 0.000000 0.000000 -4.621771 0.000000 0.000000 0.000000 0.000000 0.000000 -3.587706 0.000000 0.000000 1.905768 0.000000 0.000000 -4.658254 0.000000 0.000000 0.000000 0.000000
0.000000 125.000000 0.000000 -164.742945 7.539965 0.497620 0.308833 -5.315226 -1.183667 0.177068 -8.189202 -0.526879 0.175464 -2.368798 -0.508891 0.090806 4.059809 -0.381697 -5.061517 20.476766 0.926407 -9.480310 2.218437 3.180754 0.796931 0.854158 8.617176 0.335876 1.886221 80.418468 9.060282 23.195643 6.058559 -3.614934 27.480771 -6.611070 69.598349 58.344229 49.809114 -0.556691 -0.324885 26.894644 -2.678945 0.363419 8.863651 -10.475991 -5.785649 42.060749 -0.260304 -1.149700 92.599627 -2.289300 1.151098 40.990449 -7.901636 -1.553860 68.781466 0.828052 -0.331429 84.850558 1.129492 -0.201144 51.413397 -6.915044 -0.388353 64.239893 1.242752 -0.510236 84.515163 1.536722 -0.166942 53.058090 -4.745966 2.793166 59.934458 3.403739 -0.430529 67.444933 3.763129 0.364971 42.853359 1.315139 2.205403 -8.109360 -8.094373 3.792240 -78.779146 -10.196825 6.031406 -2.727610 -3.779375 14.153667 5.643859 -102.173022 67.023754 -69.703094 0.034960 0.004971 -27.041345 0.034703 -0.007166 -29.439984 5.546665 4.633877 -66.259960 -3.757028 2.054718 -40.449536 -4.869677 1.833038 -29.947167 5.699639 2.880954 -67.675376 -2.295808 -0.131269 -66.083514 -2.629769 0.094348 -40.589321 5.172444 3.462986 -62.040874 -2.978777 -0.559170 -72.444962 -3.466176 -0.053422 -45.092902 4.963044 2.627603 -42.640480 -2.912129 -0.830422 -77.048125 -3.449748 -0.124216 -46.409283 -0.000000 0.000000 0.000000 -0.000000 0.000000 0.000000 -0.000000 0.000000 0.000000 -0.000000 0.000000 0.000000 -0.000000 0.000000 0.000000 -0.000000 0.000000 0.000000 -0.000000 0.000000 0.000000 -0.000000 0.000000 0.000000
0.000000 125.000000 0.000000 -164.716998 7.466200 0.491343 0.320809 -5.253896 -1.153100 0.181488 -8.161967 -0.513073 0.179850 -2.341564 -0.494636 0.095262 4.080243 -0.370991 -4.998973 20.426587 0.936558 -9.372204 2.121896 3.184680 0.823127 0.799519 8.571367 0.316291 1.498508 80.353403 8.960722 23.185599 6.040506 -3.784383 27.455371 -6.433404 69.562048 58.351534 49.808528 -0.554434 -0.322340 26.845509 -2.661772 0.360356 8.844424 -10.476896 -5.786260 42.057989 -0.260783 -1.150709 92.622767 -2.291754 1.151260 40.958895 -7.902849 -1.556492 68.776710 0.828121 -0.331481 84.850359 1.129912 -0.201256 51.400758 -6.914659 -0.386856 64.238082 1.242173 -0.509870 84.507415 1.536064 -0.166836 53.049654 -4.748399 2.790489 59.929572 3.397049 -0.425813 67.376387 3.754534 0.367283 42.810035 1.272581 2.165098 -8.056184 -8.126914 3.770220 -78.853060 -10.209722 6.029630 -2.761385 -3.794962 14.143056 5.630482 -102.173022 67.023754 -69.703094 0.034960 0.004971 -27.041345 0.034703 -0.007166 -29.439984 5.546665 4.633877 -66.259960 -3.757028 2.054718 -40.449536 -4.869677 1.833038 -29.947167 5.699639 2.880954 -67.675376 -2.295808 -0.131269 -66.083514 -2.629769 0.094348 -40.589321 5.172444 3.462986 -62.040874 -2.978777 -0.559170 -72.444962 -3.466176 -0.053422 -45.092902 4.963044 2.627603 -42.640480 -2.912129 -0.830422 -77.048125 -3.449748 -0.124216 -46.409283 0.000000 -0.000000 -0.000000 0.000000 -0.000000 -0.000000 0.000000 -0.000000 -0.000000 0.000000 -0.000000 -0.000000 0.000000 -0.000000 -0.000000 0.000000 -0.000000 -0.000000 0.000000 -0.000000 -0.000000 0.000000 -0.000000 -0.000000
0.000000 125.000000 0.000000 -164.696940 7.418374 0.483584 0.333744 -5.210806 -1.127937 0.186463 -8.142840 -0.501672 0.184784 -2.322438 -0.482730 0.099932 4.094592 -0.362041 -4.928565 20.381901 0.942570 -9.248271 2.034667 3.178284 0.852633 0.753696 8.545719 0.276188 1.178523 80.297225 8.881198 23.197743 6.034315 -3.924856 27.432403 -6.293897 69.540398 58.358057 49.802425 -0.552984 -0.320864 26.819547 -2.651803 0.358717 8.837403 -10.482162 -5.791946 42.053867 -0.262646 -1.152592 92.667897 -2.296618 1.153747 40.983634 -7.903012 -1.556351 68.774257 0.828010 -0.331491 84.847365 1.129835 -0.201185 51.395547 -6.915116 -0.387585 64.237685 1.241968 -0.509785 84.505028 1.535852 -0.166842 53.046298 -4.748448 2.790050 59.933247 3.396062 -0.424376 67.352941 3.753025 0.368224 42.795164 1.238009 2.133032 -8.016375 -8.156371 3.759780 -78.908769 -10.224152 6.024789 -2.789817 -3.807282 14.141008 5.619433 -102.173022 67.023754 -69.703094 0.034960 0.004971 -27.041345 0.034703 -0.007166 -29.439984 5.546665 4.633877 -66.259960 -3.757028 2.054718 -40.449536 -4.869677 1.833038 -29.947167 5.699639 2.880954 -67.675376 -2.295808 -0.131269 -66.083513 -2.629769 0.094348 -40.589320 5.172443 3.462986 -62.040873 -2.978777 -0.559170 -72.444961 -3.466176 -0.053422 -45.092902 4.963044 2.627603 -42.640480 -2.912129 -0.830422 -77.048124 -3.449748 -0.124216 -46.409282 -0.000000 0.000000 0.000000 -0.000000 0.000000 0.000000 -0.000000 0.000000 0.000000 -0.000000 0.000000 0.000000 -0.000000 0.000000 0.000000 -0.000000 0.000000 0.000000 -0.000000 0.000000 0.000000 -0.000000 0.000000 0.000000
0.000000 125.000000 0.000000 -164.688008 7.413549 0.472528 0.348502 -5.197322 -1.111050 0.192453 -8.136876 -0.493945 0.190719 -2.316477 -0.474395 0.105058 4.099066 -0.355760 -4.844752 20.347367 0.944132 -9.098069 1.965016 3.159057 0.886077 0.720785 8.551434 0.207819 0.971281 80.258963 8.826480 23.244361 6.040573 -4.018043 27.414583 -6.220144 69.535238 58.356117 49.799449 -0.552964 -0.320420 26.810202 -2.649473 0.358403 8.839189 -10.479027 -5.787400 42.057636 -0.262123 -1.150534 92.674298 -2.292389 1.151272 40.965599 -7.903906 -1.557694 68.782492 0.823133 -0.329506 84.842000 1.123292 -0.200009 51.388799 -6.914882 -0.387123 64.237504 1.242010 -0.509762 84.503104 1.535955 -0.166844 53.044202 -4.748448 2.790052 59.933249 3.396071 -0.424381 67.352944 3.753022 0.368215 42.795175 1.215592 2.113649 -7.997805 -8.183103 3.768674 -78.935227 -10.241132 6.012805 -2.811287 -3.812394 14.156536 5.610643 -102.159583 67.022483 -69.692525 0.035008 0.004923 -27.037873 0.034663 -0.007091 -29.434319 5.546219 4.635972 -66.263197 -3.757137 2.055059 -40.446889 -4.869474 1.833452 -29.943797 5.701661 2.882544 -67.669386 -2.292013 -0.131259 -66.087372 -2.625557 0.093978 -40.591406 5.172453 3.462982 -62.040884 -2.978780 -0.559147 -72.444682 -3.466179 -0.053386 -45.092367 4.964459 2.623412 -42.649257 -2.905188 -0.825466 -76.983658 -3.440425 -0.122142 -46.368132 -0.000000 -0.000000 -0.000000 -0.000000 -0.000000 -0.000000 -0.000000 -0.000000 -0.000000 -0.000000 -0.000000 0.000000 -0.000000 -0.000000 -0.000000 -0.000000 -0.000000 -0.000000 -0.000000 -0.000000 -0.000000 -0.000000 -0.000000 0.000000
